<svg xmlns="http://www.w3.org/2000/svg" width="1000" height="1000" viewBox="0 0 1000 1000" version="1.1">
	<path d="M 340 233.405 C 340 233.628, 341.462 235.609, 343.250 237.806 C 345.038 240.003, 351.225 247.741, 357 255 C 362.775 262.260, 370.707 272.122, 374.627 276.917 C 378.546 281.711, 383.496 287.896, 385.627 290.661 C 387.757 293.427, 407.500 318.098, 429.500 345.488 C 451.500 372.877, 471.525 397.877, 474 401.043 C 476.475 404.209, 512.605 449.324, 554.289 501.299 C 628.156 593.401, 630.172 595.806, 633.789 596.149 C 635.830 596.342, 660.376 596.659, 688.336 596.853 L 739.171 597.206 606.389 431.353 C 533.358 340.134, 471.782 263.218, 469.553 260.429 C 467.324 257.640, 461.450 250.330, 456.500 244.185 L 447.500 233.012 393.750 233.006 C 364.188 233.003, 340 233.182, 340 233.405 M 275.500 246.684 C 238.404 258.604, 219.234 267.364, 196.544 282.763 C 156.442 309.979, 122.772 349.599, 104.563 391 C 98.874 403.937, 98.514 404.841, 95.228 414.500 C 88.400 434.572, 84.602 451.275, 82.950 468.500 C 82.370 474.550, 81.468 482.252, 80.947 485.615 C 79.729 493.480, 79.737 505.608, 80.967 513.385 C 81.498 516.748, 82.401 524.450, 82.973 530.500 C 84.021 541.586, 87.748 561.023, 90.627 570.419 C 104.619 616.089, 123.820 649.087, 155.481 681.876 C 181.778 709.110, 214.776 730.522, 251.773 744.359 C 267.616 750.285, 272.165 751.564, 291.607 755.561 C 318.720 761.134, 341.732 762.569, 366.103 760.206 C 378.076 759.045, 407.871 753.819, 412.105 752.138 C 413.422 751.615, 419.225 749.731, 425 747.952 C 485.468 729.323, 540.885 684.367, 572.245 628.500 C 575.332 623, 578.644 616.822, 579.604 614.772 L 581.350 611.043 577.360 606.272 C 575.166 603.647, 562.197 587.550, 548.539 570.500 C 534.881 553.450, 522.661 538.600, 521.382 537.500 C 518.881 535.347, 483.062 492.276, 467.186 472.331 L 457.500 460.162 391.750 460.081 L 326 460 326 499.500 L 326 539 423.869 539 L 521.737 539 520.495 544.250 C 517.693 556.093, 507.363 582.149, 503.546 587 C 502.897 587.825, 500.705 591.351, 498.675 594.835 C 486.317 616.046, 461.985 640.038, 438.500 654.168 C 408.313 672.331, 379.163 680.362, 343.500 680.341 C 320.164 680.327, 297.921 676.387, 277.228 668.602 C 271.981 666.628, 253.295 657.056, 246.500 652.861 C 236.402 646.628, 223.250 636.037, 213.633 626.394 C 185.642 598.328, 168.643 564.020, 163.017 524.236 C 160.459 506.150, 160.463 491.863, 163.030 474.349 C 168.968 433.833, 186.133 399.970, 215.627 370.582 C 244.005 342.307, 279.826 325.013, 320.443 319.977 C 329.211 318.890, 338.099 318, 340.193 318 C 342.287 318, 344 317.761, 344 317.469 C 344 317.177, 336.688 307.890, 327.750 296.831 C 318.813 285.773, 305.858 269.699, 298.961 261.113 C 284.999 243.727, 284.897 243.664, 275.500 246.684 M 530.755 269.250 C 560.013 305.816, 599.981 355.733, 657.261 427.250 L 729.145 517 783.228 517 C 834.651 517, 837.235 516.914, 835.781 515.250 C 834.940 514.288, 801.474 472.550, 761.413 422.500 C 721.351 372.450, 677.127 317.212, 663.136 299.750 L 637.697 268 583.726 268 C 540.683 268, 529.958 268.253, 530.755 269.250 M 724.245 313.343 C 728.785 319.041, 751.835 347.845, 775.468 377.352 L 818.435 431 872.218 431 C 901.798 431, 926 430.858, 926 430.685 C 926 430.512, 903.129 401.825, 875.177 366.935 L 824.353 303.500 770.171 303.241 L 715.989 302.983 724.245 313.343" stroke="none" fill="black" fill-rule="evenodd"/>
</svg>